<svg width="320" height="212" viewBox="0 0 194 206" fill="none" xmlns="http://www.w3.org/2000/svg">
<path d="M116.438 63.0625L121.25 54.1875L140.5 49.75L150.125 67.5L140.5 80.8125L154.938 120.75L135.688 129.625V156.25L97.1875 174L58.6875 156.25V129.625L39.4375 120.75L53.875 80.8125L44.25 67.5L53.875 49.75L73.125 54.1875L77.9375 63.0625H116.438Z" fill="white"/>
<path d="M77.9375 116.312H116.438L97.1875 138.5L77.9375 116.312Z" fill="#B07DFB"/>
<path d="M193.437 27.5625L154.937 40.875L169.375 0.9375L106.812 14.25L97.1875 32L82.75 14.25L25 0.9375L39.4375 40.875L0.9375 27.5625L20.1875 63.0625L0.9375 116.312L58.6875 187.312L97.1875 205.062L135.687 187.312L193.437 116.312L174.187 63.0625L193.437 27.5625ZM135.687 129.625V156.25L97.1875 174L58.6875 156.25V129.625L39.4375 120.75L53.875 80.8125L44.25 67.5L53.875 49.75L73.125 54.1875L77.9375 63.0625H116.437L121.25 54.1875L140.5 49.75L150.125 67.5L140.5 80.8125L154.937 120.75L135.687 129.625Z" fill="#B07DFB"/>
<path d="M116.438 63.0625L121.25 54.1875L140.5 49.75L150.125 67.5L140.5 80.8125L154.938 120.75L135.688 129.625V156.25L97.1875 174L58.6875 156.25V129.625L39.4375 120.75L53.875 80.8125L44.25 67.5L53.875 49.75L73.125 54.1875L77.9375 63.0625H116.438Z" stroke="#8844EE" stroke-miterlimit="10" stroke-linecap="round" stroke-linejoin="round"/>
<path d="M97.1875 32L106.812 14.25L169.375 0.9375L154.937 40.875L193.437 27.5625L174.187 63.0625L193.437 116.312L135.687 187.312L97.1875 205.062L58.6875 187.312L0.9375 116.312L20.1875 63.0625L0.9375 27.5625L39.4375 40.875L25 0.9375L82.75 14.25L97.1875 32Z" stroke="#8844EE" stroke-miterlimit="10" stroke-linecap="round" stroke-linejoin="round"/>
<path d="M77.9375 89.6875V98.5625" stroke="#8844EE" stroke-miterlimit="10" stroke-linecap="round" stroke-linejoin="round"/>
<path d="M116.438 89.6875V98.5625" stroke="#8844EE" stroke-miterlimit="10" stroke-linecap="round" stroke-linejoin="round"/>
<path d="M77.9375 116.312H116.438L97.1875 138.5L77.9375 116.312Z" stroke="#8844EE" stroke-miterlimit="10" stroke-linecap="round" stroke-linejoin="round"/>
<path d="M97.1875 138.5V151.812" stroke="#8844EE" stroke-miterlimit="10" stroke-linecap="round" stroke-linejoin="round"/>
</svg>
